<svg width="138" height="150" viewBox="0 0 138 150" fill="none" xmlns="http://www.w3.org/2000/svg">
<path d="M58.9331 148.999C58.6204 149.19 58.1172 149.068 57.9268 148.755L57.7364 148.442C55.7049 145.107 54.2581 141.559 53.1647 137.652C53.0785 137.276 53.2641 136.877 53.6403 136.791C54.0164 136.704 54.4153 136.89 54.5016 137.266C55.468 140.964 56.9149 144.513 58.8194 147.64L58.9463 147.848C59.368 148.306 59.2458 148.809 58.9331 148.999ZM53.1523 126.371C53.0481 126.434 52.9439 126.498 52.7762 126.457C52.4001 126.543 52.0418 126.19 52.164 125.687C52.2853 121.898 52.7194 117.918 53.8014 113.83C53.8829 113.494 54.2997 113.24 54.6352 113.322C54.9706 113.403 55.2246 113.82 55.1431 114.156C54.1652 118.181 53.6677 122.056 53.5872 125.677C53.5057 126.013 53.465 126.18 53.1523 126.371ZM58.4622 103.417C58.358 103.481 57.9818 103.567 57.9183 103.463C57.5194 103.277 57.4333 102.901 57.5148 102.565C58.4206 100.299 59.4306 97.9692 60.5857 95.4081C61.1428 94.2113 61.7407 92.8469 62.4021 91.5867C62.6513 91.292 62.9638 91.1016 63.2993 91.1831C63.5939 91.4323 63.7844 91.745 63.703 92.0804C63.1458 93.2771 62.4844 94.5373 61.8866 95.9018C60.668 98.3587 59.7622 100.625 58.9199 102.996C58.6072 103.186 58.5664 103.354 58.4622 103.417ZM68.3865 81.9402C68.1781 82.0671 67.9061 82.0898 67.6749 81.9449C67.3802 81.6957 67.1899 81.383 67.2714 81.0476C69.2735 76.8274 70.7999 73.4684 71.8459 70.2591C71.9274 69.9237 72.4079 69.7741 72.7433 69.8556C73.0788 69.9371 73.2284 70.4174 73.1469 70.7528C71.9967 74.0255 70.4703 77.3845 68.4274 81.7724C68.5951 81.8132 68.4908 81.8767 68.3865 81.9402ZM99.6204 54.6281C99.3077 54.8186 98.8047 54.6964 98.6142 54.3837C98.4238 54.071 98.4418 53.6314 98.8587 53.3775C102.13 51.2418 105.171 48.961 107.998 46.0958C108.248 45.8011 108.687 45.8191 108.982 46.0683C109.277 46.3175 109.259 46.7572 109.009 47.0519C106.078 49.9806 102.892 52.4924 99.6204 54.6281ZM89.0433 59.7844C88.9391 59.8479 88.9391 59.8479 88.9391 59.8479C85.223 61.254 81.2529 62.2433 77.405 62.7294C77.0289 62.8156 76.6708 62.4621 76.5845 62.0859C76.4983 61.7098 76.8516 61.3516 77.2278 61.2654C81.0757 60.7793 84.8781 59.7493 88.5536 58.5109C88.9297 58.4247 89.3286 58.6106 89.4148 58.9867C89.4375 59.2587 89.356 59.594 89.0433 59.7844ZM116.549 38.3158C116.34 38.4428 116.068 38.4655 115.774 38.2163C115.479 37.9671 115.393 37.5908 115.579 37.1919C117.735 34.1637 119.701 30.8229 121.645 27.21C121.894 26.9153 122.206 26.7249 122.605 26.9106C122.9 27.1598 123.091 27.4725 122.905 27.8714C120.921 31.652 118.891 34.8886 116.63 37.9803C116.589 38.148 116.549 38.3158 116.549 38.3158ZM76.0037 59.7247C75.8995 59.7882 75.6275 59.811 75.5233 59.8745C75.1879 59.793 74.8297 59.4395 74.9112 59.1041C75.6171 55.1018 75.5707 51.2719 75.1481 47.5283C75.0618 47.1521 75.4154 46.794 75.7915 46.7078C76.1677 46.6216 76.5257 46.975 76.612 47.3511C77.098 51.199 76.9996 55.26 76.4613 59.3031C76.3164 59.5343 76.2121 59.5977 76.0037 59.7247ZM65.7886 62.6602C65.6843 62.7236 65.4123 62.7463 65.3081 62.8098C61.0973 62.2308 57.2808 61.1261 53.7949 59.3912C53.5002 59.142 53.3098 58.8292 53.4955 58.4303C53.7447 58.1356 54.0574 57.9453 54.4563 58.131C57.7745 59.8252 61.4234 60.8892 65.4664 61.4274C65.8019 61.5089 66.16 61.8623 66.0785 62.1977C66.1012 62.4696 65.8928 62.5967 65.7886 62.6602ZM127.566 17.4591C127.357 17.5861 127.085 17.6089 126.918 17.5682C126.519 17.3824 126.432 17.0062 126.514 16.6708C127.936 13.3754 129.254 10.1434 130.3 6.93421L130.794 5.63318C130.98 5.23428 131.356 5.14807 131.691 5.22956C131.922 5.37453 132.176 5.79148 132.095 6.12689L131.601 7.42779C130.387 10.5963 129.174 13.7648 127.815 17.1645C127.774 17.3322 127.67 17.3957 127.566 17.4591ZM72.8153 36.6603C72.3984 36.9143 71.9996 36.7286 71.8091 36.4159C71.5552 35.999 71.3648 35.6863 71.1108 35.2694C70.2855 33.9145 69.356 32.623 68.218 31.4585C67.0166 30.1898 65.7109 28.9846 64.0926 27.9698C63.7979 27.7206 63.7117 27.3444 63.8974 26.9455C64.1466 26.6508 64.5229 26.5646 64.9217 26.7503C66.5401 27.7651 68.0134 29.011 69.2783 30.3839C70.4163 31.5484 71.4093 32.9443 72.298 34.4034C72.552 34.8203 72.8059 35.2372 73.0598 35.6541C73.2095 36.1345 73.0238 36.5334 72.8153 36.6603ZM45.2901 51.9967C44.9774 52.1871 44.5377 52.1692 44.3472 51.8565C43.8621 51.2946 43.3543 50.4608 42.9734 49.8354C41.2593 47.0213 40.1706 43.8264 39.7528 40.7943C39.6666 40.4181 40.02 40.0599 40.3962 39.9737C40.7723 39.8875 41.1306 40.2409 41.2168 40.6171C41.5712 43.5449 42.6371 46.4679 44.2876 49.1778C44.6685 49.8031 45.1129 50.5328 45.598 51.0946C45.8292 51.2396 45.707 51.7427 45.2901 51.9967C45.3943 51.9332 45.3943 51.9332 45.2901 51.9967ZM53.649 24.8997C53.5448 24.9632 53.4407 25.0267 53.273 24.9859C49.8827 25.0504 47.0231 26.2206 44.9026 28.3696C44.4449 28.7912 44.0508 29.3171 43.5931 29.7387C43.3439 30.0334 42.9678 30.1196 42.6096 29.7662C42.315 29.517 42.2287 29.1407 42.5822 28.7825C42.9763 28.2567 43.4747 27.6673 43.9323 27.2457C46.3656 24.9063 49.6013 23.65 53.3677 23.4993C53.7438 23.4131 54.1021 23.7665 54.0841 24.2062C54.0026 24.5416 53.8575 24.7728 53.649 24.8997Z" fill="#EBDBCD"/>
</svg>
